<mxfile host="65bd71144e">
    <diagram id="VKOV7p3ySDGR_SBzoM1k" name="Page-1">
        <mxGraphModel dx="832" dy="1282" grid="1" gridSize="10" guides="1" tooltips="1" connect="1" arrows="1" fold="1" page="1" pageScale="1" pageWidth="1100" pageHeight="850" math="0" shadow="0">
            <root>
                <mxCell id="0"/>
                <mxCell id="1" parent="0"/>
                <mxCell id="44" style="edgeStyle=none;html=1;exitX=0.014;exitY=0.374;exitDx=0;exitDy=0;entryX=1;entryY=0.403;entryDx=0;entryDy=0;exitPerimeter=0;entryPerimeter=0;" parent="1" source="6" target="43" edge="1">
                    <mxGeometry relative="1" as="geometry">
                        <mxPoint x="452" y="-180" as="sourcePoint"/>
                        <mxPoint x="452" y="-60" as="targetPoint"/>
                    </mxGeometry>
                </mxCell>
                <mxCell id="58" value="&lt;font style=&quot;font-size: 14px;&quot;&gt;معلومات الطلب&lt;/font&gt;" style="edgeLabel;html=1;align=center;verticalAlign=middle;resizable=0;points=[];rotation=0;" parent="44" vertex="1" connectable="0">
                    <mxGeometry x="-0.25" relative="1" as="geometry">
                        <mxPoint x="-24" y="-3" as="offset"/>
                    </mxGeometry>
                </mxCell>
                <mxCell id="54" style="html=1;" parent="1" edge="1">
                    <mxGeometry relative="1" as="geometry">
                        <mxPoint x="720" y="-238" as="targetPoint"/>
                        <mxPoint x="570" y="-240" as="sourcePoint"/>
                    </mxGeometry>
                </mxCell>
                <mxCell id="55" value="&lt;font style=&quot;font-size: 14px;&quot;&gt;فواتير المشتركبن&lt;/font&gt;" style="edgeLabel;html=1;align=center;verticalAlign=middle;resizable=0;points=[];" parent="54" vertex="1" connectable="0">
                    <mxGeometry x="0.2186" y="-4" relative="1" as="geometry">
                        <mxPoint x="-3" y="-6" as="offset"/>
                    </mxGeometry>
                </mxCell>
                <mxCell id="5" value="0.0" style="swimlane;rounded=1;fillColor=#1ba1e2;fontColor=#FFFFFF;strokeColor=#006EAF;swimlaneLine=1;shadow=0;glass=0;" parent="1" vertex="1">
                    <mxGeometry x="436" y="-360" width="140" height="180" as="geometry"/>
                </mxCell>
                <mxCell id="6" value="نظام ادارة محطة كهرباء بعدادات ذكية" style="text;align=center;verticalAlign=middle;rounded=0;fontStyle=1;labelBackgroundColor=none;fillColor=#1ba1e2;fontColor=#FFFFFF;strokeColor=#006EAF;fontSize=18;whiteSpace=wrap;glass=0;" parent="5" vertex="1">
                    <mxGeometry y="25" width="140" height="155" as="geometry"/>
                </mxCell>
                <mxCell id="49" style="html=1;startArrow=none;endArrow=classic;endFill=1;entryX=1.029;entryY=0.329;entryDx=0;entryDy=0;entryPerimeter=0;" parent="1" target="6" edge="1">
                    <mxGeometry relative="1" as="geometry">
                        <mxPoint x="720" y="-283" as="sourcePoint"/>
                        <mxPoint x="580" y="-283" as="targetPoint"/>
                    </mxGeometry>
                </mxCell>
                <mxCell id="52" value="&lt;font style=&quot;font-size: 14px;&quot;&gt;بيانات المشتركين&lt;/font&gt;" style="edgeLabel;html=1;align=center;verticalAlign=middle;resizable=0;points=[];" parent="49" vertex="1" connectable="0">
                    <mxGeometry x="-0.2143" relative="1" as="geometry">
                        <mxPoint x="-9" as="offset"/>
                    </mxGeometry>
                </mxCell>
                <mxCell id="50" style="edgeStyle=elbowEdgeStyle;html=1;startArrow=none;endArrow=classic;exitX=0;exitY=0.75;exitDx=0;exitDy=0;endFill=1;" parent="1" edge="1">
                    <mxGeometry relative="1" as="geometry">
                        <mxPoint x="580" y="-264" as="targetPoint"/>
                        <mxPoint x="720" y="-263.75" as="sourcePoint"/>
                    </mxGeometry>
                </mxCell>
                <mxCell id="53" value="&lt;font style=&quot;font-size: 14px;&quot;&gt;المبالغ المحصلة&lt;/font&gt;" style="edgeLabel;html=1;align=center;verticalAlign=middle;resizable=0;points=[];" parent="50" vertex="1" connectable="0">
                    <mxGeometry x="-0.2014" y="1" relative="1" as="geometry">
                        <mxPoint as="offset"/>
                    </mxGeometry>
                </mxCell>
                <UserObject label="موظف" treeRoot="1" id="19">
                    <mxCell style="whiteSpace=wrap;html=1;align=center;treeFolding=1;treeMoving=1;newEdgeStyle={&quot;edgeStyle&quot;:&quot;elbowEdgeStyle&quot;,&quot;startArrow&quot;:&quot;none&quot;,&quot;endArrow&quot;:&quot;none&quot;};fontSize=22;fontStyle=1;fillColor=#1ba1e2;strokeColor=#006EAF;fontColor=#ffffff;" parent="1" vertex="1">
                        <mxGeometry x="720" y="-316.5" width="100" height="93" as="geometry"/>
                    </mxCell>
                </UserObject>
                <mxCell id="59" style="html=1;startArrow=none;endArrow=classic;entryX=0;entryY=0.5;entryDx=0;entryDy=0;startFill=0;endFill=1;elbow=vertical;" parent="1" target="6" edge="1">
                    <mxGeometry relative="1" as="geometry">
                        <mxPoint x="479" y="-180" as="targetPoint"/>
                        <mxPoint x="280" y="-257" as="sourcePoint"/>
                    </mxGeometry>
                </mxCell>
                <mxCell id="60" value="&lt;font style=&quot;font-size: 14px;&quot;&gt;حالة الطلب&lt;/font&gt;" style="edgeLabel;html=1;align=center;verticalAlign=middle;resizable=0;points=[];rotation=0;" parent="59" vertex="1" connectable="0">
                    <mxGeometry x="0.3" y="-2" relative="1" as="geometry">
                        <mxPoint x="-21" y="-2" as="offset"/>
                    </mxGeometry>
                </mxCell>
                <UserObject label="مشترك" treeRoot="1" id="20">
                    <mxCell style="whiteSpace=wrap;html=1;align=center;treeFolding=1;treeMoving=1;newEdgeStyle={&quot;edgeStyle&quot;:&quot;elbowEdgeStyle&quot;,&quot;startArrow&quot;:&quot;none&quot;,&quot;endArrow&quot;:&quot;none&quot;};fontSize=22;fontStyle=1;fillColor=#1ba1e2;strokeColor=#006EAF;fontColor=#ffffff;" parent="1" vertex="1">
                        <mxGeometry x="436" y="-60" width="140" height="50" as="geometry"/>
                    </mxCell>
                </UserObject>
                <UserObject label="ادارة المحطة" treeRoot="1" id="43">
                    <mxCell style="whiteSpace=wrap;html=1;align=center;treeFolding=1;treeMoving=1;newEdgeStyle={&quot;edgeStyle&quot;:&quot;elbowEdgeStyle&quot;,&quot;startArrow&quot;:&quot;none&quot;,&quot;endArrow&quot;:&quot;none&quot;};fontSize=22;fontStyle=1;fillColor=#1ba1e2;strokeColor=#006EAF;fontColor=#ffffff;" parent="1" vertex="1">
                        <mxGeometry x="190" y="-315.5" width="100" height="93" as="geometry"/>
                    </mxCell>
                </UserObject>
                <mxCell id="47" value="&lt;font style=&quot;font-size: 14px;&quot;&gt;قراءة العداد&lt;/font&gt;" style="edgeStyle=elbowEdgeStyle;html=1;startArrow=none;endArrow=classic;entryX=0.5;entryY=0;entryDx=0;entryDy=0;endFill=1;elbow=vertical;" parent="1" source="46" target="5" edge="1">
                    <mxGeometry relative="1" as="geometry"/>
                </mxCell>
                <UserObject label="العداد" treeRoot="1" id="46">
                    <mxCell style="whiteSpace=wrap;html=1;align=center;treeFolding=1;treeMoving=1;newEdgeStyle={&quot;edgeStyle&quot;:&quot;elbowEdgeStyle&quot;,&quot;startArrow&quot;:&quot;none&quot;,&quot;endArrow&quot;:&quot;none&quot;};fontSize=22;fontStyle=1;fillColor=#1ba1e2;strokeColor=#006EAF;fontColor=#ffffff;" parent="1" vertex="1">
                        <mxGeometry x="436" y="-530" width="140" height="50" as="geometry"/>
                    </mxCell>
                </UserObject>
                <mxCell id="48" style="html=1;startArrow=none;endArrow=classic;exitX=0;exitY=0.25;exitDx=0;exitDy=0;endFill=1;entryX=1.014;entryY=0.194;entryDx=0;entryDy=0;entryPerimeter=0;" parent="1" target="6" edge="1">
                    <mxGeometry relative="1" as="geometry">
                        <mxPoint x="720" y="-303.25" as="sourcePoint"/>
                        <mxPoint x="580" y="-303" as="targetPoint"/>
                    </mxGeometry>
                </mxCell>
                <mxCell id="51" value="&lt;font style=&quot;font-size: 14px;&quot;&gt;طلبات الخدمات&lt;/font&gt;" style="edgeLabel;html=1;align=center;verticalAlign=middle;resizable=0;points=[];" parent="48" vertex="1" connectable="0">
                    <mxGeometry x="-0.3714" y="1" relative="1" as="geometry">
                        <mxPoint x="-16" as="offset"/>
                    </mxGeometry>
                </mxCell>
                <mxCell id="56" style="edgeStyle=none;html=1;entryX=1;entryY=0.5;entryDx=0;entryDy=0;exitX=0;exitY=0.426;exitDx=0;exitDy=0;exitPerimeter=0;" parent="1" edge="1">
                    <mxGeometry relative="1" as="geometry">
                        <mxPoint x="436" y="-296.97" as="sourcePoint"/>
                        <mxPoint x="290" y="-297" as="targetPoint"/>
                    </mxGeometry>
                </mxCell>
                <mxCell id="57" value="&lt;font style=&quot;font-size: 14px;&quot;&gt;تقارير&lt;/font&gt;" style="edgeLabel;html=1;align=center;verticalAlign=middle;resizable=0;points=[];" parent="56" vertex="1" connectable="0">
                    <mxGeometry x="-0.1096" y="2" relative="1" as="geometry">
                        <mxPoint x="-11" y="-5" as="offset"/>
                    </mxGeometry>
                </mxCell>
                <mxCell id="63" style="html=1;startArrow=none;endArrow=classic;exitX=1;exitY=0.887;exitDx=0;exitDy=0;entryX=0.007;entryY=0.658;entryDx=0;entryDy=0;entryPerimeter=0;exitPerimeter=0;endFill=1;" parent="1" source="43" target="6" edge="1">
                    <mxGeometry relative="1" as="geometry"/>
                </mxCell>
                <mxCell id="64" value="&lt;font style=&quot;font-size: 14px;&quot;&gt;بيانات الغرامة&lt;/font&gt;" style="edgeLabel;html=1;align=center;verticalAlign=middle;resizable=0;points=[];" parent="63" vertex="1" connectable="0">
                    <mxGeometry x="0.0069" y="-2" relative="1" as="geometry">
                        <mxPoint as="offset"/>
                    </mxGeometry>
                </mxCell>
                <mxCell id="66" style="edgeStyle=none;html=1;entryX=0.5;entryY=0;entryDx=0;entryDy=0;" parent="1" source="6" target="20" edge="1">
                    <mxGeometry relative="1" as="geometry"/>
                </mxCell>
                <mxCell id="67" value="&lt;font style=&quot;font-size: 14px;&quot;&gt;اشعارات&lt;/font&gt;" style="edgeLabel;html=1;align=center;verticalAlign=middle;resizable=0;points=[];" parent="66" vertex="1" connectable="0">
                    <mxGeometry x="0.0333" y="1" relative="1" as="geometry">
                        <mxPoint as="offset"/>
                    </mxGeometry>
                </mxCell>
            </root>
        </mxGraphModel>
    </diagram>
</mxfile>